<svg xmlns="http://www.w3.org/2000/svg" xml:space="preserve" width="1500" height="187" data-id="lg_juObQTBRhGx6Uj9oBc" data-version="1" viewBox="0 0 1500 187"><g data-padding="20"><g transform="translate(10 3.333)scale(.96435)"><rect width="417.517" height="192.688" x="293.186" y="-96.56" fill="none" rx="0" ry="0" transform="matrix(.97 0 0 .97 358.47 93.71)"/><path fill="#e77917" d="M667.186 84.275q-7.13 0-12.455-2.997-5.325-2.988-8.836-8.313l5.51-4.56q3.045 4.463 6.848 6.888t8.933 2.425q13.493 0 13.493-12.64 0-5.14-2.464-7.798-2.473-2.658-8.555-4.18l-4.947-1.242q-8.75-2.183-12.882-6.412T647.7 33.515q0-8.837 5.51-13.357 5.52-4.51 14.637-4.51 6.945 0 11.65 2.56 4.704 2.57 8.225 8.08l-5.616 3.997q-2.56-3.997-5.84-6.043-3.278-2.037-8.7-2.037-6.082 0-9.274 2.658-3.18 2.667-3.18 8.652 0 4.85 2.618 7.323 2.61 2.464 8.41 3.89l4.947 1.242q4.656 1.135 7.886 2.706t5.276 3.851 2.95 5.374q.901 3.084.901 7.178 0 9.409-5.567 14.298-5.558 4.898-15.346 4.898m36.404 0q-5.606 0-5.606-4.85v-1.513q0-4.85 5.606-4.85t5.607 4.85v1.513q0 4.85-5.607 4.85m50.296-60.838h-18.722V83.14h-7.605V23.437h-18.73v-6.655h45.056Zm5.217 60.838q-5.606 0-5.606-4.85v-1.513q0-4.85 5.606-4.85 5.617 0 5.617 4.85v1.513q0 4.85-5.617 4.85m66.736-1.135h-7.798l-5.888-19.875h-23.862l-5.898 19.875h-7.605l20.73-66.357h9.505ZM810.436 57l-7.692-25.191-2.095-8.274h-.95l-2.096 8.274-7.508 25.19Zm31.088 27.276q-5.606 0-5.606-4.85v-1.513q0-4.85 5.606-4.85t5.607 4.85v1.513q0 4.85-5.607 4.85m27.286-29.653V83.14h-7.604V16.783h24.424q16.451 0 16.451 18.914 0 15.976-11.795 18.45l13.406 28.993h-8.556l-12.455-28.518Zm0-6.47h16.636q8.458 0 8.458-9.127v-6.46q0-9.128-8.458-9.128H868.81Zm50.76 36.123q-5.606 0-5.606-4.85v-1.513q0-4.85 5.607-4.85t5.606 4.85v1.513q0 4.85-5.606 4.85m55.241-1.136L955.51 50.248l-8.652 10.834V83.14h-7.605V16.783h7.605v22.154l-.563 13.687h.95l9.788-13.687 16.54-22.154h8.75l-21.866 28.42 23.29 37.937Zm-303.446 80.627q-5.606 0-10.077-2.047-4.462-2.037-7.557-6.228-3.084-4.18-4.753-10.689-1.658-6.509-1.658-15.355 0-8.837 1.658-15.355 1.67-6.509 4.753-10.69 3.095-4.18 7.557-6.227 4.471-2.047 10.078-2.047 8.177 0 13.114 3.473 4.947 3.473 7.8 10.602l-6.083 3.706q-1.804-5.423-5.18-8.226t-9.65-2.803q-7.606 0-11.738 5.47-4.142 5.462-4.142 14.686v14.832q0 9.215 4.142 14.685 4.132 5.461 11.737 5.461 6.46 0 9.981-2.997 3.521-2.987 5.326-8.691l6.081 3.802q-2.85 7.13-8.03 10.884t-13.358 3.754m53.71 0q-12.077 0-18.73-8.275-6.655-8.264-6.655-26.044 0-17.77 6.654-26.044t18.73-8.275 18.732 8.274q6.654 8.275 6.654 26.045 0 17.78-6.654 26.045-6.655 8.274-18.73 8.274m0-6.752q8.273 0 12.735-5.46 4.472-5.471 4.472-14.686v-14.832q0-9.225-4.472-14.686-4.462-5.47-12.736-5.47t-12.736 5.47q-4.472 5.461-4.472 14.686v14.831q0 9.215 4.472 14.686 4.462 5.461 12.736 5.461m73.777 5.607-22.058-43.058-5.8-13.687h-.95l.67 13.687v43.058h-7.412V96.274h9.312l22.058 43.058 5.79 13.697h.951l-.66-13.697V96.274h7.411v66.348Zm60.538 0-22.048-43.058-5.8-13.687h-.95l.668 13.687v43.058h-7.42V96.274h9.32l22.05 43.058 5.8 13.697h.95l-.67-13.697V96.274h7.421v66.348Zm61.711 0h-36.695V96.274h36.695v6.654h-29.09v22.815h27.276v6.654h-27.276v23.57h29.09Zm34.396 1.145q-5.606 0-10.078-2.047-4.462-2.037-7.556-6.228-3.085-4.18-4.753-10.689-1.659-6.509-1.659-15.355 0-8.837 1.66-15.355 1.667-6.509 4.752-10.69 3.094-4.18 7.556-6.227 4.472-2.047 10.078-2.047 8.177 0 13.124 3.473 4.938 3.473 7.79 10.602l-6.082 3.706q-1.805-5.423-5.18-8.226t-9.652-2.803q-7.604 0-11.737 5.47-4.132 5.462-4.132 14.686v14.832q0 9.215 4.132 14.685 4.133 5.461 11.737 5.461 6.47 0 9.982-2.997 3.52-2.987 5.325-8.691l6.082 3.802q-2.852 7.13-8.032 10.884t-13.357 3.754m70.927-60.839h-18.73v59.694h-7.605v-59.694h-18.72v-6.654h45.055Zm-466.164 49.514-.505-.367a46 46 0 0 0-5.17-4.131h-1.134a49 49 0 0 0-15.774-2.57h-1.622a50.5 50.5 0 0 0-15.774 2.478h-1.117a47.4 47.4 0 0 0-5.156 4.223l-.49.444-.535-.444c-2.34-2.02-4.896-9.18-5.187-10.067l-.887-3.06.841-.153s1.683-.475 1.745-4.59c0-4.59-5.172-13.526-5.218-13.617-.306-.49-7.65-12.409-9.792-16.83-2.142-4.422-3.427-15.056-3.427-15.5-.78-12.056 0-12.484.49-12.729l.443-.23.536.337a9.2 9.2 0 0 1 2.004 4.04v.871c.353.766 1.698 3.643 1.943 4.437a29 29 0 0 0 2.234 4.07 109 109 0 0 1 6.793 9.027 2.45 2.45 0 0 0 1.408 1.285c6.258.643 13.326 1.179 14.198.903.551-.214.551-.214.551-.658v-.49c0-.183-.32-.29-.32-.29-.644-.184-14.444-4.177-18.453-7.115-4.009-2.937-4.36-4.697-4.376-5.018 0 0-1.606-9.18-2.586-16.004s-.474-16.065 0-22.46c.414-5.6 1.117-7.008 1.194-7.16l1.025-1.27a2.91 2.91 0 0 1 3.274-.78 40 40 0 0 1 7.16 1.621 8.26 8.26 0 0 1 5.11 4.59L525.44 64.59a7.5 7.5 0 0 0 6.12 3.886h10.71a7.5 7.5 0 0 0 6.12-3.871l11.75-19.37a8.26 8.26 0 0 1 5.11-4.59 40 40 0 0 1 7.176-1.622 2.91 2.91 0 0 1 3.26.78l.948 1.163c.153.26.872 1.668 1.27 7.268.46 6.395.964 15.682 0 22.46s-2.693 15.989-2.693 16.08c0 .092-.337 1.99-4.36 4.943s-17.825 6.93-18.36 7.099c0 0-.383.107-.368.306s0 .336 0 .49c0 .458 0 .458.597.688a112 112 0 0 0 14.26-.934 2.45 2.45 0 0 0 1.346-1.27 109 109 0 0 1 6.778-9.026 30.6 30.6 0 0 0 2.25-4.07c.244-.796 1.53-3.672 1.942-4.437v-.873a9.2 9.2 0 0 1 2.035-4.116l.383-.306.596.199c.444.245 1.285.673.505 12.684 0 .49-1.362 11.046-3.504 15.499-2.142 4.452-9.486 16.294-9.792 16.83 0 0-5.278 8.98-5.202 13.601 0 4.1 1.745 4.59 1.76 4.59l.765.184-.184.765-.627 2.295c-.29.857-2.846 8.078-5.187 10.098Zm-51.47-12.607.475 1.622a38.3 38.3 0 0 0 4.253 8.89 32 32 0 0 1 5.218-3.994h1.163a49 49 0 0 1 16.187-2.616h1.53a50.5 50.5 0 0 1 16.172 2.631h1.163a32 32 0 0 1 5.217 3.993 38.3 38.3 0 0 0 4.33-8.904l.444-1.53c-.872-.551-2.173-1.99-2.219-5.722 0-5.065 5.202-14.046 5.416-14.428.092-.138 7.65-12.363 9.731-16.662 2.081-4.3 3.35-14.872 3.366-14.979.245-3.81.367-8.032.245-10.144a12 12 0 0 0-.704 2.02v1.086c-.688 1.53-1.76 3.825-1.928 4.407a26 26 0 0 1-2.692 4.712c-.536.536-5.768 7.344-6.457 8.63a3.83 3.83 0 0 1-2.463 2.08c-3.229.337-13.663 1.377-15.04.842-1.377-.536-1.53-1.286-1.53-2.096v-.383a1.836 1.836 0 0 1 1.53-1.912c.092 0 14.091-4.07 17.885-6.855 3.32-2.57 3.596-3.963 3.596-3.978s1.622-9.18 2.601-16.065c.98-6.885.444-15.805 0-22.139-.367-5.187-.98-6.487-1.01-6.533l-.857-1.04a1.53 1.53 0 0 0-1.53-.291h-.214a38.3 38.3 0 0 0-6.946 1.53 6.73 6.73 0 0 0-4.284 3.779v.138l-11.78 19.415a9.03 9.03 0 0 1-7.406 4.59h-10.71a9.03 9.03 0 0 1-7.405-4.59l-11.858-19.553a6.73 6.73 0 0 0-4.192-3.703 38.3 38.3 0 0 0-6.946-1.53h-.215a1.38 1.38 0 0 0-1.53.291l-.948 1.163a26 26 0 0 0-.933 6.41c-.46 6.335-.949 15.5 0 22.14s2.57 15.942 2.585 16.033.306 1.438 3.764 3.963c3.733 2.708 17.794 6.747 17.87 6.793a1.836 1.836 0 0 1 1.53 1.897v.383c0 .81-.122 1.53-1.53 2.096s-11.81-.505-14.978-.826a3.83 3.83 0 0 1-2.54-2.097 115 115 0 0 0-6.44-8.629 26 26 0 0 1-2.694-4.712 77 77 0 0 0-1.928-4.407l-.076-.32v-.766a14 14 0 0 0-.72-2.02c-.122 2.097 0 6.335.26 10.19 0 0 1.316 10.71 3.351 14.933s9.655 16.524 9.731 16.647c.23.397 5.508 9.378 5.432 14.443-.184 3.718-1.454 5.156-2.34 5.676"/><path fill="#e77917" d="M502.2 95.924a8.4 8.4 0 0 1 .473-5.217l1.316.78-.704-.383.673.368a7.65 7.65 0 0 0-.29 4.238Zm69.323-.046h-1.53a41 41 0 0 0-.367-4.59l1.53-.2a37 37 0 0 1 .367 4.79m-14.673 45.487-.459-.903a4.13 4.13 0 0 0-3.488-2.325c-2.77.168-15.729.703-15.85.719h-.29c-.17 0-13.114-.551-15.883-.72a4.28 4.28 0 0 0-3.504 2.326l-.459.903-.75-.688-3.917-3.58 1.071-1.087 3.198 2.922a5.2 5.2 0 0 1 4.437-2.325c2.754.168 15.683.719 15.82.719h.184c.092 0 13.036-.551 15.79-.72a5.2 5.2 0 0 1 4.421 2.326l3.198-2.922 1.086 1.086-3.932 3.58Zm-47.43-3.565a18.4 18.4 0 0 1-3.703-3.182c-.688-1.056-5.278-16.004-6.196-18.988v-3.335h1.53v3.06c2.065 6.747 5.493 17.656 5.982 18.498a18.4 18.4 0 0 0 3.274 2.754Zm54.713.72-.872-1.27a16.8 16.8 0 0 0 3.29-2.755c.49-.841 3.916-11.735 5.982-18.482v-3.06h1.53v3.32c-.919 2.983-5.509 17.916-6.12 18.972a18.4 18.4 0 0 1-3.81 3.274"/><path fill="#e77917" d="M538.215 162.02h-2.51c-12.576 0-21.16-3.213-26.989-10.098-4.406-5.217-12.944-20.915-13.632-30.906-.55-8.048-4.04-21.94-5.34-27.173l-.52-2.096a34 34 0 0 0-1.714-5.064v-.184c-1.07-6.854-.964-31.074 1.44-32.696a5.36 5.36 0 0 0 1.804-1.851 59.7 59.7 0 0 1 7.512-24.48l.184-.184c13.876-10.786 37.454-10.633 38.51-10.618h.168c.98 0 24.48-.168 38.48 10.618l.183.184a59.7 59.7 0 0 1 7.513 24.48 5.2 5.2 0 0 0 1.805 1.851c2.402 1.622 2.51 25.842 1.423 32.696v.184a35 35 0 0 0-1.714 5.064c0 .367-.26 1.102-.52 2.096-1.3 5.233-4.789 19.125-5.34 27.173-.688 9.99-9.18 25.689-13.632 30.906-5.952 6.885-14.596 10.098-27.11 10.098m-.369-1.53h.352c15.897 0 22.354-5.447 25.827-9.562 4.3-5.08 12.607-20.273 13.28-30.02.566-8.17 3.948-21.68 5.386-27.447l.52-2.05a33.7 33.7 0 0 1 1.76-5.233c1.3-8.507.504-29.483-.842-31.15a6.1 6.1 0 0 1-2.372-2.587v-.199a59.7 59.7 0 0 0-7.22-23.837C560.95 18.032 537.311 18.2 537.051 18.2h-.184c-.23 0-23.914-.153-37.439 10.205a59.7 59.7 0 0 0-7.22 23.838v.198a6.1 6.1 0 0 1-2.419 2.632c-1.3 1.622-2.096 22.598-.795 31.105a33.7 33.7 0 0 1 1.76 5.232l.52 2.05c1.437 5.769 4.82 19.279 5.385 27.449.673 9.685 8.98 24.939 13.28 30.019 3.473 4.115 9.945 9.562 25.827 9.562h2.126Z"/></g><path fill="transparent" stroke="transparent" d="M469.5 0h561v187h-561z"/></g></svg>